<svg xmlns="http://www.w3.org/2000/svg" viewBox="0 0 1000 430" width="1000" height="430" role="img" aria-labelledby="t d">
<title id="t">Wallpaper follows the theme</title>
<desc id="d">Animated diagram. Left: Omarchy in the VM. Its theme menu switches the theme from Rose Pine to Tokyo Night, then to Everforest, then back to Rose Pine; the background, bar and window borders change each time. Each switch sends the background over OmacVM Bridge to the Mac as a small packet labelled wallpaper. Right: the notched MacBook's desktop, with its menu bar and Dock, changes its wallpaper to the same background. A small thumbnail underneath shows macOS's own, unchanged lock screen (clock, generic user picture and password field) in front of the new wallpaper.</desc>

<defs><pattern id="dots" width="40" height="40" patternUnits="userSpaceOnUse"><rect x="20" y="20" width="2" height="2" fill="#26233a"/></pattern></defs><rect width="1000" height="430" fill="#191724"/><rect width="1000" height="430" fill="url(#dots)"/>
<text x="500" y="40" font-family="-apple-system, BlinkMacSystemFont, 'Segoe UI', Helvetica, Arial, sans-serif" font-size="20" font-weight="600" fill="#e0def4" text-anchor="middle" letter-spacing="0.3">the Mac's wallpaper follows your Omarchy theme</text>
<text x="40" y="66" font-family="-apple-system, BlinkMacSystemFont, 'Segoe UI', Helvetica, Arial, sans-serif" font-size="13" font-weight="600" fill="#908caa" text-anchor="start">Omarchy (VM)</text>
<rect x="30" y="74" width="400" height="258" fill="#13111c" stroke="#403d52" stroke-width="2"/>
<g opacity="1"><animate attributeName="opacity" dur="12.6s" repeatCount="indefinite" keyTimes="0;0.2381;0.2619;0.8492;0.873;1" values="1;1;0;0;1;1"/><rect x="40" y="84" width="380" height="238" fill="#faf4ed"/><circle cx="275.6" cy="203.0" r="71.4" fill="#d7827e" opacity="0.75"/><polygon points="40,255.4 116.0,222.0 199.6,250.6 290.8,212.5 420,241.1 420,322 40,322" fill="#907aa9" opacity="0.55"/><polygon points="40,288.7 154.0,264.9 268.0,293.4 420,269.6 420,322 40,322" fill="#56949f" opacity="0.6"/><rect x="40" y="84" width="380" height="20" fill="#faf4ed"/><rect x="47.5" y="89.5" width="9.0" height="9.0" fill="none" stroke="#575279" stroke-width="1.5"/><rect x="50.5" y="92.5" width="3.0" height="3.0" fill="#575279"/><circle cx="70" cy="94" r="3.4" fill="#575279"/><circle cx="82" cy="94" r="2.7" fill="none" stroke="#575279" stroke-width="1.3" opacity="0.6"/><circle cx="94" cy="94" r="2.7" fill="none" stroke="#575279" stroke-width="1.3" opacity="0.6"/><circle cx="106" cy="94" r="2.7" fill="none" stroke="#575279" stroke-width="1.3" opacity="0.6"/><circle cx="118" cy="94" r="2.7" fill="none" stroke="#575279" stroke-width="1.3" opacity="0.6"/><text x="412" y="98" font-family="ui-monospace, 'SF Mono', Menlo, monospace" font-size="9" font-weight="600" fill="#575279" text-anchor="end">Thu Oct 1 14:20</text><rect x="54" y="118" width="170" height="120" fill="#fffaf3" stroke="#907aa9" stroke-width="2"/><rect x="66" y="132" width="70" height="5" fill="#575279" opacity="0.5"/><rect x="66" y="148" width="130" height="5" fill="#575279" opacity="0.9"/><rect x="66" y="164" width="100" height="5" fill="#575279" opacity="0.9"/><rect x="66" y="180" width="60" height="5" fill="#575279" opacity="0.5"/><rect x="66" y="196" width="140" height="5" fill="#575279" opacity="0.9"/><rect x="66" y="212" width="90" height="5" fill="#575279" opacity="0.9"/></g>
<g opacity="0"><animate attributeName="opacity" dur="12.6s" repeatCount="indefinite" keyTimes="0;0.2143;0.2381;0.5556;0.5794;1" values="0;0;1;1;0;0"/><rect x="40" y="84" width="380" height="238" fill="#1a1b26"/><circle cx="275.6" cy="203.0" r="71.4" fill="#7aa2f7" opacity="0.75"/><polygon points="40,255.4 116.0,222.0 199.6,250.6 290.8,212.5 420,241.1 420,322 40,322" fill="#bb9af7" opacity="0.55"/><polygon points="40,288.7 154.0,264.9 268.0,293.4 420,269.6 420,322 40,322" fill="#2ac3de" opacity="0.6"/><rect x="40" y="84" width="380" height="20" fill="#1a1b26"/><rect x="47.5" y="89.5" width="9.0" height="9.0" fill="none" stroke="#c0caf5" stroke-width="1.5"/><rect x="50.5" y="92.5" width="3.0" height="3.0" fill="#c0caf5"/><circle cx="70" cy="94" r="3.4" fill="#c0caf5"/><circle cx="82" cy="94" r="2.7" fill="none" stroke="#c0caf5" stroke-width="1.3" opacity="0.6"/><circle cx="94" cy="94" r="2.7" fill="none" stroke="#c0caf5" stroke-width="1.3" opacity="0.6"/><circle cx="106" cy="94" r="2.7" fill="none" stroke="#c0caf5" stroke-width="1.3" opacity="0.6"/><circle cx="118" cy="94" r="2.7" fill="none" stroke="#c0caf5" stroke-width="1.3" opacity="0.6"/><text x="412" y="98" font-family="ui-monospace, 'SF Mono', Menlo, monospace" font-size="9" font-weight="600" fill="#c0caf5" text-anchor="end">Thu Oct 1 14:20</text><rect x="54" y="118" width="170" height="120" fill="#16161e" stroke="#7aa2f7" stroke-width="2"/><rect x="66" y="132" width="70" height="5" fill="#c0caf5" opacity="0.5"/><rect x="66" y="148" width="130" height="5" fill="#c0caf5" opacity="0.9"/><rect x="66" y="164" width="100" height="5" fill="#c0caf5" opacity="0.9"/><rect x="66" y="180" width="60" height="5" fill="#c0caf5" opacity="0.5"/><rect x="66" y="196" width="140" height="5" fill="#c0caf5" opacity="0.9"/><rect x="66" y="212" width="90" height="5" fill="#c0caf5" opacity="0.9"/></g>
<g opacity="0"><animate attributeName="opacity" dur="12.6s" repeatCount="indefinite" keyTimes="0;0.5317;0.5556;0.873;0.8968;1" values="0;0;1;1;0;0"/><rect x="40" y="84" width="380" height="238" fill="#2d353b"/><circle cx="275.6" cy="203.0" r="71.4" fill="#dbbc7f" opacity="0.75"/><polygon points="40,255.4 116.0,222.0 199.6,250.6 290.8,212.5 420,241.1 420,322 40,322" fill="#a7c080" opacity="0.55"/><polygon points="40,288.7 154.0,264.9 268.0,293.4 420,269.6 420,322 40,322" fill="#83c092" opacity="0.6"/><rect x="40" y="84" width="380" height="20" fill="#2d353b"/><rect x="47.5" y="89.5" width="9.0" height="9.0" fill="none" stroke="#d3c6aa" stroke-width="1.5"/><rect x="50.5" y="92.5" width="3.0" height="3.0" fill="#d3c6aa"/><circle cx="70" cy="94" r="3.4" fill="#d3c6aa"/><circle cx="82" cy="94" r="2.7" fill="none" stroke="#d3c6aa" stroke-width="1.3" opacity="0.6"/><circle cx="94" cy="94" r="2.7" fill="none" stroke="#d3c6aa" stroke-width="1.3" opacity="0.6"/><circle cx="106" cy="94" r="2.7" fill="none" stroke="#d3c6aa" stroke-width="1.3" opacity="0.6"/><circle cx="118" cy="94" r="2.7" fill="none" stroke="#d3c6aa" stroke-width="1.3" opacity="0.6"/><text x="412" y="98" font-family="ui-monospace, 'SF Mono', Menlo, monospace" font-size="9" font-weight="600" fill="#d3c6aa" text-anchor="end">Thu Oct 1 14:20</text><rect x="54" y="118" width="170" height="120" fill="#272e33" stroke="#a7c080" stroke-width="2"/><rect x="66" y="132" width="70" height="5" fill="#d3c6aa" opacity="0.5"/><rect x="66" y="148" width="130" height="5" fill="#d3c6aa" opacity="0.9"/><rect x="66" y="164" width="100" height="5" fill="#d3c6aa" opacity="0.9"/><rect x="66" y="180" width="60" height="5" fill="#d3c6aa" opacity="0.5"/><rect x="66" y="196" width="140" height="5" fill="#d3c6aa" opacity="0.9"/><rect x="66" y="212" width="90" height="5" fill="#d3c6aa" opacity="0.9"/></g>
<g opacity="0"><animate attributeName="opacity" dur="12.6s" repeatCount="indefinite" keyTimes="0;0.1349;0.1508;0.2262;0.2421;0.4524;0.4683;0.5437;0.5595;0.7698;0.7857;0.8611;0.877;1" values="0;0;1;1;0;0;1;1;0;0;1;1;0;0"/><rect x="236" y="116" width="168" height="104" fill="#1f1d2e" stroke="#c4a7e7" stroke-width="2"/><text x="248" y="136" font-family="-apple-system, BlinkMacSystemFont, 'Segoe UI', Helvetica, Arial, sans-serif" font-size="12" font-weight="700" fill="#e0def4" text-anchor="start">Theme</text><rect x="242" y="144" width="156" height="22" fill="#403d52"><animate attributeName="y" dur="12.6s" repeatCount="indefinite" keyTimes="0;0.1746;0.1984;0.4921;0.5159;0.8095;0.8333;1" values="144;144;168;168;192;192;144;144" calcMode="spline" keySplines="0.42 0 0.58 1;0.42 0 0.58 1;0.42 0 0.58 1;0.42 0 0.58 1;0.42 0 0.58 1;0.42 0 0.58 1;0.42 0 0.58 1"/></rect><rect x="250" y="150" width="10" height="10" fill="#907aa9"/><text x="268" y="160" font-family="-apple-system, BlinkMacSystemFont, 'Segoe UI', Helvetica, Arial, sans-serif" font-size="12" font-weight="600" fill="#e0def4" text-anchor="start">Rosé Pine</text><rect x="250" y="174" width="10" height="10" fill="#7aa2f7"/><text x="268" y="184" font-family="-apple-system, BlinkMacSystemFont, 'Segoe UI', Helvetica, Arial, sans-serif" font-size="12" font-weight="600" fill="#e0def4" text-anchor="start">Tokyo Night</text><rect x="250" y="198" width="10" height="10" fill="#a7c080"/><text x="268" y="208" font-family="-apple-system, BlinkMacSystemFont, 'Segoe UI', Helvetica, Arial, sans-serif" font-size="12" font-weight="600" fill="#e0def4" text-anchor="start">Everforest</text></g>
<path d="M436 203h126" stroke="#403d52" stroke-width="2" stroke-dasharray="5 5"/><path d="M556 197l6 6l-6 6" fill="none" stroke="#403d52" stroke-width="2"/><text x="499" y="172" font-family="-apple-system, BlinkMacSystemFont, 'Segoe UI', Helvetica, Arial, sans-serif" font-size="12" font-weight="600" fill="#908caa" text-anchor="middle">OmacVM Bridge</text><text x="499" y="188" font-family="-apple-system, BlinkMacSystemFont, 'Segoe UI', Helvetica, Arial, sans-serif" font-size="10.5" font-weight="600" fill="#6e6a86" text-anchor="middle">Parallels / UTM network</text>
<g opacity="0"><animate attributeName="opacity" dur="12.6s" repeatCount="indefinite" keyTimes="0;0.2452;0.246;0.2937;0.2976;1" values="0;0;1;1;0;0"/><g><animateTransform attributeName="transform" type="translate" dur="12.6s" repeatCount="indefinite" keyTimes="0;0.246;0.2976;1" values="440 203;440 203;556 203;556 203"/><rect x="-3.5" y="-3.5" width="7" height="7" fill="#f6c177"/><text x="0" y="22" font-family="-apple-system, BlinkMacSystemFont, 'Segoe UI', Helvetica, Arial, sans-serif" font-size="11" font-weight="600" fill="#f6c177" text-anchor="middle">wallpaper</text></g></g>
<g opacity="0"><animate attributeName="opacity" dur="12.6s" repeatCount="indefinite" keyTimes="0;0.5627;0.5635;0.6111;0.6151;1" values="0;0;1;1;0;0"/><g><animateTransform attributeName="transform" type="translate" dur="12.6s" repeatCount="indefinite" keyTimes="0;0.5635;0.6151;1" values="440 203;440 203;556 203;556 203"/><rect x="-3.5" y="-3.5" width="7" height="7" fill="#f6c177"/><text x="0" y="22" font-family="-apple-system, BlinkMacSystemFont, 'Segoe UI', Helvetica, Arial, sans-serif" font-size="11" font-weight="600" fill="#f6c177" text-anchor="middle">wallpaper</text></g></g>
<g opacity="0"><animate attributeName="opacity" dur="12.6s" repeatCount="indefinite" keyTimes="0;0.8802;0.881;0.9286;0.9325;1" values="0;0;1;1;0;0"/><g><animateTransform attributeName="transform" type="translate" dur="12.6s" repeatCount="indefinite" keyTimes="0;0.881;0.9325;1" values="440 203;440 203;556 203;556 203"/><rect x="-3.5" y="-3.5" width="7" height="7" fill="#f6c177"/><text x="0" y="22" font-family="-apple-system, BlinkMacSystemFont, 'Segoe UI', Helvetica, Arial, sans-serif" font-size="11" font-weight="600" fill="#f6c177" text-anchor="middle">wallpaper</text></g></g>
<text x="580" y="66" font-family="-apple-system, BlinkMacSystemFont, 'Segoe UI', Helvetica, Arial, sans-serif" font-size="13" font-weight="600" fill="#908caa" text-anchor="start">your Mac's desktop</text>
<rect x="570" y="74" width="400" height="258" fill="#13111c" stroke="#403d52" stroke-width="2"/><polygon points="570,334 970,334 978,340 562,340" fill="#26233a" stroke="#403d52" stroke-width="2"/><rect x="562" y="340" width="416" height="9" fill="#1f1d2e" stroke="#403d52" stroke-width="2"/>
<g opacity="1"><animate attributeName="opacity" dur="12.6s" repeatCount="indefinite" keyTimes="0;0.3016;0.3254;0.9127;0.9365;1" values="1;1;0;0;1;1"/><rect x="580" y="84" width="380" height="238" fill="#faf4ed"/><circle cx="815.6" cy="203.0" r="71.4" fill="#d7827e" opacity="0.75"/><polygon points="580,255.4 656.0,222.0 739.6,250.6 830.8,212.5 960,241.1 960,322 580,322" fill="#907aa9" opacity="0.55"/><polygon points="580,288.7 694.0,264.9 808.0,293.4 960,269.6 960,322 580,322" fill="#56949f" opacity="0.6"/></g>
<g opacity="0"><animate attributeName="opacity" dur="12.6s" repeatCount="indefinite" keyTimes="0;0.2778;0.3016;0.619;0.6429;1" values="0;0;1;1;0;0"/><rect x="580" y="84" width="380" height="238" fill="#1a1b26"/><circle cx="815.6" cy="203.0" r="71.4" fill="#7aa2f7" opacity="0.75"/><polygon points="580,255.4 656.0,222.0 739.6,250.6 830.8,212.5 960,241.1 960,322 580,322" fill="#bb9af7" opacity="0.55"/><polygon points="580,288.7 694.0,264.9 808.0,293.4 960,269.6 960,322 580,322" fill="#2ac3de" opacity="0.6"/></g>
<g opacity="0"><animate attributeName="opacity" dur="12.6s" repeatCount="indefinite" keyTimes="0;0.5952;0.619;0.9365;0.9603;1" values="0;0;1;1;0;0"/><rect x="580" y="84" width="380" height="238" fill="#2d353b"/><circle cx="815.6" cy="203.0" r="71.4" fill="#dbbc7f" opacity="0.75"/><polygon points="580,255.4 656.0,222.0 739.6,250.6 830.8,212.5 960,241.1 960,322 580,322" fill="#a7c080" opacity="0.55"/><polygon points="580,288.7 694.0,264.9 808.0,293.4 960,269.6 960,322 580,322" fill="#83c092" opacity="0.6"/></g>
<rect x="580" y="84" width="380" height="16.5" fill="#13111c" opacity="0.45"/><rect x="590" y="90" width="10" height="5" fill="#ffffff" opacity="0.85"/><rect x="620" y="90" width="20" height="5" fill="#ffffff" opacity="0.85"/><rect x="650" y="90" width="18" height="5" fill="#ffffff" opacity="0.85"/><rect x="680" y="90" width="18" height="5" fill="#ffffff" opacity="0.85"/><circle cx="836" cy="92.0" r="1.1" fill="#ffffff"/><path d="M833.6 90.1A3.3600000000000003 3.3600000000000003 0 0 1 838.4 90.1" fill="none" stroke="#ffffff" stroke-width="1.2" stroke-linecap="round"/><path d="M831.8 88.3A5.920000000000001 5.920000000000001 0 0 1 840.2 88.3" fill="none" stroke="#ffffff" stroke-width="1.2" stroke-linecap="round"/><path d="M830.0 86.5A8.48 8.48 0 0 1 842.0 86.5" fill="none" stroke="#ffffff" stroke-width="1.2" stroke-linecap="round"/><path d="M852.8 90.6h2.2l3.0 -2.6v8.2l-3.0 -2.6h-2.2z" fill="#ffffff"/><path d="M858.8 89.9a2.6 2.6 0 0 1 0 5.2" fill="none" stroke="#ffffff" stroke-width="1.0" stroke-linecap="round"/><path d="M858.8 87.6a4.9 4.9 0 0 1 0 9.8" fill="none" stroke="#ffffff" stroke-width="1.0" stroke-linecap="round"/><text x="954" y="96.5" font-family="-apple-system, BlinkMacSystemFont, 'Segoe UI', Helvetica, Arial, sans-serif" font-size="9" font-weight="500" fill="#ffffff" text-anchor="end">Thu 1 Oct 14:20</text>
<rect x="680.0" y="292" width="180" height="24" fill="#ffffff" opacity="0.3"/>
<rect x="687.0" y="296" width="17" height="17" fill="#9ccfd8"/>
<rect x="715.0" y="296" width="17" height="17" fill="#eb6f92"/>
<rect x="743.0" y="296" width="17" height="17" fill="#f6c177"/>
<rect x="771.0" y="296" width="17" height="17" fill="#c4a7e7"/>
<rect x="799.0" y="296" width="17" height="17" fill="#31748f"/>
<rect x="827.0" y="296" width="17" height="17" fill="#191724"/><rect x="831.3" y="300.3" width="8.4" height="8.4" fill="none" stroke="#e0def4" stroke-width="1.4"/><rect x="834.1" y="303.1" width="2.8" height="2.8" fill="#e0def4"/>
<path d="M738.3 74H801.7V96.7a3.8 3.8 0 0 1 -3.8 3.8H742.1a3.8 3.8 0 0 1 -3.8 -3.8z" fill="#000"/><circle cx="770.0" cy="89.1" r="1.9" fill="#15131f"/><circle cx="770.0" cy="89.1" r="0.8" fill="#2b2940"/>
<g opacity="1"><animate attributeName="opacity" dur="12.6s" repeatCount="indefinite" keyTimes="0;0.3016;0.3254;0.9127;0.9365;1" values="1;1;0;0;1;1"/><text x="960" y="374" font-family="-apple-system, BlinkMacSystemFont, 'Segoe UI', Helvetica, Arial, sans-serif" font-size="13" font-weight="600" fill="#ebbcba" text-anchor="end">Rosé Pine</text></g>
<g opacity="0"><animate attributeName="opacity" dur="12.6s" repeatCount="indefinite" keyTimes="0;0.2778;0.3016;0.619;0.6429;1" values="0;0;1;1;0;0"/><text x="960" y="374" font-family="-apple-system, BlinkMacSystemFont, 'Segoe UI', Helvetica, Arial, sans-serif" font-size="13" font-weight="600" fill="#7aa2f7" text-anchor="end">Tokyo Night</text></g>
<g opacity="0"><animate attributeName="opacity" dur="12.6s" repeatCount="indefinite" keyTimes="0;0.5952;0.619;0.9365;0.9603;1" values="0;0;1;1;0;0"/><text x="960" y="374" font-family="-apple-system, BlinkMacSystemFont, 'Segoe UI', Helvetica, Arial, sans-serif" font-size="13" font-weight="600" fill="#a7c080" text-anchor="end">Everforest</text></g>
<g opacity="1"><animate attributeName="opacity" dur="12.6s" repeatCount="indefinite" keyTimes="0;0.2381;0.2619;0.8492;0.873;1" values="1;1;0;0;1;1"/><text x="420" y="374" font-family="-apple-system, BlinkMacSystemFont, 'Segoe UI', Helvetica, Arial, sans-serif" font-size="13" font-weight="600" fill="#ebbcba" text-anchor="end">Rosé Pine</text></g>
<g opacity="0"><animate attributeName="opacity" dur="12.6s" repeatCount="indefinite" keyTimes="0;0.2143;0.2381;0.5556;0.5794;1" values="0;0;1;1;0;0"/><text x="420" y="374" font-family="-apple-system, BlinkMacSystemFont, 'Segoe UI', Helvetica, Arial, sans-serif" font-size="13" font-weight="600" fill="#7aa2f7" text-anchor="end">Tokyo Night</text></g>
<g opacity="0"><animate attributeName="opacity" dur="12.6s" repeatCount="indefinite" keyTimes="0;0.5317;0.5556;0.873;0.8968;1" values="0;0;1;1;0;0"/><text x="420" y="374" font-family="-apple-system, BlinkMacSystemFont, 'Segoe UI', Helvetica, Arial, sans-serif" font-size="13" font-weight="600" fill="#a7c080" text-anchor="end">Everforest</text></g>
<text x="40" y="374" font-family="-apple-system, BlinkMacSystemFont, 'Segoe UI', Helvetica, Arial, sans-serif" font-size="13" font-weight="600" fill="#6e6a86" text-anchor="start">theme</text>
<text x="580" y="374" font-family="-apple-system, BlinkMacSystemFont, 'Segoe UI', Helvetica, Arial, sans-serif" font-size="13" font-weight="600" fill="#6e6a86" text-anchor="start">the Mac's wallpaper</text>
<defs><clipPath id="th"><rect x="444" y="262" width="110" height="70"/></clipPath></defs><g clip-path="url(#th)">
<g opacity="1"><animate attributeName="opacity" dur="12.6s" repeatCount="indefinite" keyTimes="0;0.3016;0.3254;0.9127;0.9365;1" values="1;1;0;0;1;1"/><rect x="444" y="262" width="110" height="70" fill="#faf4ed"/><circle cx="512.2" cy="297.0" r="21.0" fill="#d7827e" opacity="0.75"/><polygon points="444,312.4 466.0,302.6 490.2,311.0 516.6,299.8 554,308.2 554,332 444,332" fill="#907aa9" opacity="0.55"/><polygon points="444,322.2 477.0,315.2 510.0,323.6 554,316.6 554,332 444,332" fill="#56949f" opacity="0.6"/></g>
<g opacity="0"><animate attributeName="opacity" dur="12.6s" repeatCount="indefinite" keyTimes="0;0.2778;0.3016;0.619;0.6429;1" values="0;0;1;1;0;0"/><rect x="444" y="262" width="110" height="70" fill="#1a1b26"/><circle cx="512.2" cy="297.0" r="21.0" fill="#7aa2f7" opacity="0.75"/><polygon points="444,312.4 466.0,302.6 490.2,311.0 516.6,299.8 554,308.2 554,332 444,332" fill="#bb9af7" opacity="0.55"/><polygon points="444,322.2 477.0,315.2 510.0,323.6 554,316.6 554,332 444,332" fill="#2ac3de" opacity="0.6"/></g>
<g opacity="0"><animate attributeName="opacity" dur="12.6s" repeatCount="indefinite" keyTimes="0;0.5952;0.619;0.9365;0.9603;1" values="0;0;1;1;0;0"/><rect x="444" y="262" width="110" height="70" fill="#2d353b"/><circle cx="512.2" cy="297.0" r="21.0" fill="#dbbc7f" opacity="0.75"/><polygon points="444,312.4 466.0,302.6 490.2,311.0 516.6,299.8 554,308.2 554,332 444,332" fill="#a7c080" opacity="0.55"/><polygon points="444,322.2 477.0,315.2 510.0,323.6 554,316.6 554,332 444,332" fill="#83c092" opacity="0.6"/></g>
<rect x="444" y="262" width="110" height="70" fill="#000" opacity="0.15"/><text x="499.0" y="284" font-family="-apple-system, BlinkMacSystemFont, 'Segoe UI', Helvetica, Arial, sans-serif" font-size="15" font-weight="700" fill="#ffffff" text-anchor="middle">14:20</text><circle cx="499.0" cy="304" r="8" fill="#c7c7cc"/><circle cx="499.0" cy="301.5" r="3" fill="#8e8e93"/><path d="M493.5 310a5.5 4.5 0 0 1 11 0z" fill="#8e8e93"/><rect x="477.0" y="316" width="44" height="9" rx="4.5" fill="#ffffff" opacity="0.45"/></g><rect x="444" y="262" width="110" height="70" fill="none" stroke="#403d52" stroke-width="1.5"/><text x="499.0" y="348" font-family="-apple-system, BlinkMacSystemFont, 'Segoe UI', Helvetica, Arial, sans-serif" font-size="10.5" font-weight="600" fill="#6e6a86" text-anchor="middle">macOS's own lock,</text><text x="499.0" y="362" font-family="-apple-system, BlinkMacSystemFont, 'Segoe UI', Helvetica, Arial, sans-serif" font-size="10.5" font-weight="600" fill="#6e6a86" text-anchor="middle">same wallpaper</text>
</svg>
